<svg width="59" height="65" viewBox="0 0 59 65" fill="none" xmlns="http://www.w3.org/2000/svg">
<path d="M42.0934 43.0555C46.7439 41.8629 50.7836 39.2399 53.776 35.4701C57.4449 30.848 59.0715 25.0761 58.356 19.2177C57.6405 13.3604 54.6694 8.14561 49.9937 4.543C45.4636 1.05048 39.8161 -0.502139 34.0916 0.171173C28.3674 0.844455 23.2339 3.66503 19.6369 8.11294C16.5533 11.9261 14.8715 16.5256 14.7732 21.4141C14.6137 29.3502 11.8789 37.0556 7.07248 43.1108L1.81327 49.7364C-0.519575 52.6753 -0.0264899 56.9642 2.91244 59.297L7.87008 63.2322C10.809 65.5651 15.0979 65.0718 17.4307 62.133L22.6895 55.5079C27.5493 49.3859 34.2445 45.0681 42.0934 43.0555ZM17.5771 21.4706C17.6628 17.2103 19.1291 13.2011 21.8175 9.87651C28.2762 1.88974 40.1478 0.493478 48.2812 6.76412C52.3592 9.91273 54.9484 14.4517 55.5719 19.5578C56.1958 24.6652 54.7777 29.6971 51.5793 33.7266C48.9706 37.0131 45.4495 39.2996 41.3966 40.339C33.1265 42.4598 26.0166 46.949 20.8016 53.3359L9.5936 44.4393C14.5779 37.9715 17.409 29.8367 17.5771 21.4706ZM4.60075 50.7356L5.30656 49.8465L15.5102 60.0419L15.2342 60.3895C15.0889 60.5726 14.9283 60.7359 14.7597 60.8863L4.60075 50.7356ZM7.06157 47.6355L7.85306 46.6384L19.0774 55.5479L17.2652 57.8309L7.06157 47.6355ZM4.65595 57.1005C3.47607 56.164 2.96807 54.6913 3.20055 53.3011L11.796 61.8896C11.0252 61.8319 10.2635 61.5514 9.61384 61.0357L4.65606 57.1004L4.65595 57.1005Z" fill="black"/>
</svg>
